<mxfile host="app.diagrams.net" modified="2023-06-09T19:35:22.153Z" agent="Mozilla/5.0 (Windows NT 10.0; Win64; x64) AppleWebKit/537.36 (KHTML, like Gecko) Chrome/114.0.0.0 Safari/537.36" version="21.3.8" etag="1X-iCwbmZEZUrVb9VnLd" type="github">
  <diagram name="PÃ¡gina-1" id="L7yu1G8QHkoDkU-42dx4">
    <mxGraphModel>
      <root>
        <mxCell id="0" />
        <mxCell id="1" parent="0" />
      </root>
    </mxGraphModel>
  </diagram>
</mxfile>
